<mxfile host="app.diagrams.net" agent="Mozilla/5.0 (Windows NT 10.0; Win64; x64) AppleWebKit/537.36 (KHTML, like Gecko) Chrome/136.0.0.0 Safari/537.36" version="27.1.0">
  <diagram id="R2lEEEUBdFMjLlhIrx00" name="Page-1">
    <mxGraphModel dx="995" dy="1260" grid="1" gridSize="10" guides="1" tooltips="1" connect="1" arrows="1" fold="1" page="1" pageScale="1" pageWidth="850" pageHeight="1100" math="0" shadow="0" extFonts="Permanent Marker^https://fonts.googleapis.com/css?family=Permanent+Marker">
      <root>
        <mxCell id="0" />
        <mxCell id="1" parent="0" />
        <mxCell id="xODlBGkNjqvj4CVomSPa-1" value="&lt;font style=&quot;font-size: 14px;&quot;&gt;Progetti&lt;/font&gt;" style="rounded=0;whiteSpace=wrap;html=1;" parent="1" vertex="1">
          <mxGeometry x="60" y="50" width="160" height="100" as="geometry" />
        </mxCell>
        <mxCell id="xODlBGkNjqvj4CVomSPa-5" value="" style="ellipse;whiteSpace=wrap;html=1;aspect=fixed;fillColor=light-dark(#FFFFFF,#FFFFFF);" parent="1" vertex="1">
          <mxGeometry x="180" y="170" width="10" height="10" as="geometry" />
        </mxCell>
        <mxCell id="xODlBGkNjqvj4CVomSPa-7" value="" style="endArrow=none;html=1;rounded=0;entryX=0.5;entryY=0;entryDx=0;entryDy=0;exitX=0.778;exitY=0.997;exitDx=0;exitDy=0;exitPerimeter=0;" parent="1" source="xODlBGkNjqvj4CVomSPa-1" target="xODlBGkNjqvj4CVomSPa-5" edge="1">
          <mxGeometry width="50" height="50" relative="1" as="geometry">
            <mxPoint x="180" y="150" as="sourcePoint" />
            <mxPoint x="230" y="100" as="targetPoint" />
          </mxGeometry>
        </mxCell>
        <mxCell id="xODlBGkNjqvj4CVomSPa-8" value="nome" style="text;html=1;align=center;verticalAlign=middle;whiteSpace=wrap;rounded=0;" parent="1" vertex="1">
          <mxGeometry x="190" y="160" width="60" height="30" as="geometry" />
        </mxCell>
        <mxCell id="xODlBGkNjqvj4CVomSPa-9" value="" style="ellipse;whiteSpace=wrap;html=1;aspect=fixed;fillColor=light-dark(#FFFFFF,transparent);" parent="1" vertex="1">
          <mxGeometry x="40" y="20" width="10" height="10" as="geometry" />
        </mxCell>
        <mxCell id="xODlBGkNjqvj4CVomSPa-10" value="data_inizio" style="text;html=1;align=center;verticalAlign=middle;whiteSpace=wrap;rounded=0;" parent="1" vertex="1">
          <mxGeometry x="50" y="10" width="60" height="30" as="geometry" />
        </mxCell>
        <mxCell id="xODlBGkNjqvj4CVomSPa-11" value="" style="endArrow=none;html=1;rounded=0;entryX=0.039;entryY=0.004;entryDx=0;entryDy=0;entryPerimeter=0;exitX=0.5;exitY=1;exitDx=0;exitDy=0;" parent="1" source="xODlBGkNjqvj4CVomSPa-9" target="xODlBGkNjqvj4CVomSPa-1" edge="1">
          <mxGeometry width="50" height="50" relative="1" as="geometry">
            <mxPoint x="170" y="110" as="sourcePoint" />
            <mxPoint x="220" y="60" as="targetPoint" />
          </mxGeometry>
        </mxCell>
        <mxCell id="xODlBGkNjqvj4CVomSPa-12" value="" style="ellipse;whiteSpace=wrap;html=1;aspect=fixed;fillColor=light-dark(#FFFFFF,transparent);" parent="1" vertex="1">
          <mxGeometry x="135" y="20" width="10" height="10" as="geometry" />
        </mxCell>
        <mxCell id="xODlBGkNjqvj4CVomSPa-17" value="" style="endArrow=none;html=1;rounded=0;entryX=0.5;entryY=1;entryDx=0;entryDy=0;exitX=0.5;exitY=0;exitDx=0;exitDy=0;" parent="1" source="xODlBGkNjqvj4CVomSPa-1" target="xODlBGkNjqvj4CVomSPa-12" edge="1">
          <mxGeometry width="50" height="50" relative="1" as="geometry">
            <mxPoint x="140" y="70" as="sourcePoint" />
            <mxPoint x="190" y="20" as="targetPoint" />
          </mxGeometry>
        </mxCell>
        <mxCell id="xODlBGkNjqvj4CVomSPa-18" value="data_fine" style="text;html=1;align=center;verticalAlign=middle;whiteSpace=wrap;rounded=0;" parent="1" vertex="1">
          <mxGeometry x="145" y="10" width="60" height="30" as="geometry" />
        </mxCell>
        <mxCell id="xODlBGkNjqvj4CVomSPa-19" value="" style="ellipse;whiteSpace=wrap;html=1;aspect=fixed;fillColor=light-dark(#FFFFFF,transparent);" parent="1" vertex="1">
          <mxGeometry x="230" y="20" width="10" height="10" as="geometry" />
        </mxCell>
        <mxCell id="xODlBGkNjqvj4CVomSPa-20" value="" style="endArrow=none;html=1;rounded=0;entryX=0;entryY=1;entryDx=0;entryDy=0;" parent="1" target="xODlBGkNjqvj4CVomSPa-19" edge="1">
          <mxGeometry width="50" height="50" relative="1" as="geometry">
            <mxPoint x="220" y="50" as="sourcePoint" />
            <mxPoint x="250" y="30" as="targetPoint" />
          </mxGeometry>
        </mxCell>
        <mxCell id="xODlBGkNjqvj4CVomSPa-21" value="budget" style="text;html=1;align=center;verticalAlign=middle;whiteSpace=wrap;rounded=0;" parent="1" vertex="1">
          <mxGeometry x="240" y="10" width="60" height="30" as="geometry" />
        </mxCell>
        <mxCell id="xODlBGkNjqvj4CVomSPa-22" value="" style="ellipse;whiteSpace=wrap;html=1;aspect=fixed;fillColor=light-dark(#FFFFFF,transparent);" parent="1" vertex="1">
          <mxGeometry x="65" y="170" width="10" height="10" as="geometry" />
        </mxCell>
        <mxCell id="xODlBGkNjqvj4CVomSPa-23" value="id_cliente" style="text;html=1;align=center;verticalAlign=middle;whiteSpace=wrap;rounded=0;" parent="1" vertex="1">
          <mxGeometry x="75" y="160" width="60" height="30" as="geometry" />
        </mxCell>
        <mxCell id="xODlBGkNjqvj4CVomSPa-24" value="" style="endArrow=none;html=1;rounded=0;exitX=0.5;exitY=0;exitDx=0;exitDy=0;" parent="1" source="xODlBGkNjqvj4CVomSPa-22" edge="1">
          <mxGeometry width="50" height="50" relative="1" as="geometry">
            <mxPoint x="50" y="200" as="sourcePoint" />
            <mxPoint x="70" y="150" as="targetPoint" />
          </mxGeometry>
        </mxCell>
        <mxCell id="xODlBGkNjqvj4CVomSPa-25" value="Commissiona" style="rhombus;whiteSpace=wrap;html=1;" parent="1" vertex="1">
          <mxGeometry x="290" y="50" width="160" height="100" as="geometry" />
        </mxCell>
        <mxCell id="xODlBGkNjqvj4CVomSPa-26" value="" style="endArrow=none;html=1;rounded=0;entryX=0;entryY=0.5;entryDx=0;entryDy=0;" parent="1" source="xODlBGkNjqvj4CVomSPa-1" target="xODlBGkNjqvj4CVomSPa-25" edge="1">
          <mxGeometry width="50" height="50" relative="1" as="geometry">
            <mxPoint x="480" y="230" as="sourcePoint" />
            <mxPoint x="530" y="180" as="targetPoint" />
          </mxGeometry>
        </mxCell>
        <mxCell id="xODlBGkNjqvj4CVomSPa-30" value="(0,1)" style="text;strokeColor=none;align=center;fillColor=none;html=1;verticalAlign=middle;whiteSpace=wrap;rounded=0;" parent="1" vertex="1">
          <mxGeometry x="240" y="70" width="60" height="30" as="geometry" />
        </mxCell>
        <mxCell id="xODlBGkNjqvj4CVomSPa-31" value="&lt;span style=&quot;font-size: 14px;&quot;&gt;Cliente&lt;/span&gt;" style="rounded=0;whiteSpace=wrap;html=1;" parent="1" vertex="1">
          <mxGeometry x="510" y="50" width="160" height="100" as="geometry" />
        </mxCell>
        <mxCell id="xODlBGkNjqvj4CVomSPa-35" value="" style="ellipse;whiteSpace=wrap;html=1;aspect=fixed;fillColor=light-dark(#FFFFFF,transparent);" parent="1" vertex="1">
          <mxGeometry x="490" y="20" width="10" height="10" as="geometry" />
        </mxCell>
        <mxCell id="xODlBGkNjqvj4CVomSPa-36" value="" style="endArrow=none;html=1;rounded=0;entryX=0.039;entryY=0.004;entryDx=0;entryDy=0;entryPerimeter=0;exitX=0.5;exitY=1;exitDx=0;exitDy=0;" parent="1" source="xODlBGkNjqvj4CVomSPa-35" target="xODlBGkNjqvj4CVomSPa-31" edge="1">
          <mxGeometry width="50" height="50" relative="1" as="geometry">
            <mxPoint x="620" y="110" as="sourcePoint" />
            <mxPoint x="670" y="60" as="targetPoint" />
          </mxGeometry>
        </mxCell>
        <mxCell id="xODlBGkNjqvj4CVomSPa-37" value="" style="ellipse;whiteSpace=wrap;html=1;aspect=fixed;fillColor=light-dark(#FFFFFF,transparent);" parent="1" vertex="1">
          <mxGeometry x="585" y="20" width="10" height="10" as="geometry" />
        </mxCell>
        <mxCell id="xODlBGkNjqvj4CVomSPa-38" value="" style="endArrow=none;html=1;rounded=0;entryX=0.5;entryY=1;entryDx=0;entryDy=0;exitX=0.5;exitY=0;exitDx=0;exitDy=0;" parent="1" source="xODlBGkNjqvj4CVomSPa-31" target="xODlBGkNjqvj4CVomSPa-37" edge="1">
          <mxGeometry width="50" height="50" relative="1" as="geometry">
            <mxPoint x="590" y="70" as="sourcePoint" />
            <mxPoint x="640" y="20" as="targetPoint" />
          </mxGeometry>
        </mxCell>
        <mxCell id="xODlBGkNjqvj4CVomSPa-41" value="" style="ellipse;whiteSpace=wrap;html=1;aspect=fixed;fillColor=light-dark(#FFFFFF,#FFFFFF);" parent="1" vertex="1">
          <mxGeometry x="555" y="170" width="10" height="10" as="geometry" />
        </mxCell>
        <mxCell id="xODlBGkNjqvj4CVomSPa-42" value="id_cliente" style="text;html=1;align=center;verticalAlign=middle;whiteSpace=wrap;rounded=0;" parent="1" vertex="1">
          <mxGeometry x="565" y="160" width="60" height="30" as="geometry" />
        </mxCell>
        <mxCell id="xODlBGkNjqvj4CVomSPa-43" value="" style="endArrow=none;html=1;rounded=0;exitX=0.5;exitY=0;exitDx=0;exitDy=0;" parent="1" source="xODlBGkNjqvj4CVomSPa-41" edge="1">
          <mxGeometry width="50" height="50" relative="1" as="geometry">
            <mxPoint x="540" y="200" as="sourcePoint" />
            <mxPoint x="560" y="150" as="targetPoint" />
          </mxGeometry>
        </mxCell>
        <mxCell id="xODlBGkNjqvj4CVomSPa-44" value="nome" style="text;html=1;align=center;verticalAlign=middle;whiteSpace=wrap;rounded=0;" parent="1" vertex="1">
          <mxGeometry x="495" y="10" width="60" height="30" as="geometry" />
        </mxCell>
        <mxCell id="xODlBGkNjqvj4CVomSPa-45" value="settore" style="text;html=1;align=center;verticalAlign=middle;whiteSpace=wrap;rounded=0;" parent="1" vertex="1">
          <mxGeometry x="595" y="10" width="60" height="30" as="geometry" />
        </mxCell>
        <mxCell id="xODlBGkNjqvj4CVomSPa-46" value="" style="endArrow=none;html=1;rounded=0;entryX=1;entryY=0.5;entryDx=0;entryDy=0;exitX=0;exitY=0.5;exitDx=0;exitDy=0;" parent="1" source="xODlBGkNjqvj4CVomSPa-31" target="xODlBGkNjqvj4CVomSPa-25" edge="1">
          <mxGeometry width="50" height="50" relative="1" as="geometry">
            <mxPoint x="510" y="235" as="sourcePoint" />
            <mxPoint x="480" y="105" as="targetPoint" />
          </mxGeometry>
        </mxCell>
        <mxCell id="xODlBGkNjqvj4CVomSPa-47" value="(1,N)" style="text;strokeColor=none;align=center;fillColor=none;html=1;verticalAlign=middle;whiteSpace=wrap;rounded=0;" parent="1" vertex="1">
          <mxGeometry x="435" y="70" width="60" height="30" as="geometry" />
        </mxCell>
        <mxCell id="xODlBGkNjqvj4CVomSPa-49" value="Sono assegnati" style="rhombus;whiteSpace=wrap;html=1;" parent="1" vertex="1">
          <mxGeometry x="90" y="260" width="160" height="100" as="geometry" />
        </mxCell>
        <mxCell id="xODlBGkNjqvj4CVomSPa-52" value="" style="endArrow=none;html=1;rounded=0;exitX=0.5;exitY=0;exitDx=0;exitDy=0;entryX=0.563;entryY=0.999;entryDx=0;entryDy=0;entryPerimeter=0;" parent="1" source="xODlBGkNjqvj4CVomSPa-49" target="xODlBGkNjqvj4CVomSPa-1" edge="1">
          <mxGeometry width="50" height="50" relative="1" as="geometry">
            <mxPoint x="290" y="220" as="sourcePoint" />
            <mxPoint x="340" y="170" as="targetPoint" />
          </mxGeometry>
        </mxCell>
        <mxCell id="xODlBGkNjqvj4CVomSPa-53" value="&lt;span style=&quot;font-size: 14px;&quot;&gt;Ingegnere&lt;/span&gt;" style="rounded=0;whiteSpace=wrap;html=1;" parent="1" vertex="1">
          <mxGeometry x="90" y="420" width="160" height="100" as="geometry" />
        </mxCell>
        <mxCell id="xODlBGkNjqvj4CVomSPa-54" value="" style="ellipse;whiteSpace=wrap;html=1;aspect=fixed;fillColor=light-dark(#FFFFFF,transparent);" parent="1" vertex="1">
          <mxGeometry x="55" y="450" width="10" height="10" as="geometry" />
        </mxCell>
        <mxCell id="xODlBGkNjqvj4CVomSPa-55" value="" style="endArrow=none;html=1;rounded=0;entryX=0;entryY=0.5;entryDx=0;entryDy=0;exitX=1;exitY=1;exitDx=0;exitDy=0;" parent="1" source="xODlBGkNjqvj4CVomSPa-54" target="xODlBGkNjqvj4CVomSPa-53" edge="1">
          <mxGeometry width="50" height="50" relative="1" as="geometry">
            <mxPoint x="180" y="480" as="sourcePoint" />
            <mxPoint x="230" y="430" as="targetPoint" />
          </mxGeometry>
        </mxCell>
        <mxCell id="xODlBGkNjqvj4CVomSPa-56" value="" style="ellipse;whiteSpace=wrap;html=1;aspect=fixed;fillColor=light-dark(#FFFFFF,transparent);" parent="1" vertex="1">
          <mxGeometry x="55" y="500" width="10" height="10" as="geometry" />
        </mxCell>
        <mxCell id="xODlBGkNjqvj4CVomSPa-57" value="" style="endArrow=none;html=1;rounded=0;entryX=1;entryY=0.5;entryDx=0;entryDy=0;exitX=0;exitY=0.75;exitDx=0;exitDy=0;" parent="1" source="xODlBGkNjqvj4CVomSPa-53" target="xODlBGkNjqvj4CVomSPa-56" edge="1">
          <mxGeometry width="50" height="50" relative="1" as="geometry">
            <mxPoint x="150" y="440" as="sourcePoint" />
            <mxPoint x="200" y="390" as="targetPoint" />
          </mxGeometry>
        </mxCell>
        <mxCell id="xODlBGkNjqvj4CVomSPa-58" value="" style="ellipse;whiteSpace=wrap;html=1;aspect=fixed;fillColor=light-dark(#FFFFFF,#FFFFFF);" parent="1" vertex="1">
          <mxGeometry x="100" y="400" width="10" height="10" as="geometry" />
        </mxCell>
        <mxCell id="xODlBGkNjqvj4CVomSPa-59" value="" style="endArrow=none;html=1;rounded=0;entryX=0.361;entryY=0.004;entryDx=0;entryDy=0;entryPerimeter=0;exitX=1;exitY=0.5;exitDx=0;exitDy=0;" parent="1" source="xODlBGkNjqvj4CVomSPa-58" edge="1">
          <mxGeometry width="50" height="50" relative="1" as="geometry">
            <mxPoint x="150" y="400" as="sourcePoint" />
            <mxPoint x="148.88" y="420.4" as="targetPoint" />
          </mxGeometry>
        </mxCell>
        <mxCell id="xODlBGkNjqvj4CVomSPa-60" value="" style="endArrow=none;html=1;rounded=0;entryX=0.5;entryY=1;entryDx=0;entryDy=0;exitX=0.5;exitY=0;exitDx=0;exitDy=0;" parent="1" source="xODlBGkNjqvj4CVomSPa-53" target="xODlBGkNjqvj4CVomSPa-49" edge="1">
          <mxGeometry width="50" height="50" relative="1" as="geometry">
            <mxPoint x="150" y="380" as="sourcePoint" />
            <mxPoint x="200" y="330" as="targetPoint" />
          </mxGeometry>
        </mxCell>
        <mxCell id="xODlBGkNjqvj4CVomSPa-63" value="nome" style="text;html=1;align=center;verticalAlign=middle;whiteSpace=wrap;rounded=0;" parent="1" vertex="1">
          <mxGeometry x="30" y="420" width="60" height="30" as="geometry" />
        </mxCell>
        <mxCell id="xODlBGkNjqvj4CVomSPa-64" value="cognome" style="text;html=1;align=center;verticalAlign=middle;whiteSpace=wrap;rounded=0;" parent="1" vertex="1">
          <mxGeometry x="30" y="470" width="60" height="30" as="geometry" />
        </mxCell>
        <mxCell id="xODlBGkNjqvj4CVomSPa-65" value="matricola" style="text;html=1;align=center;verticalAlign=middle;whiteSpace=wrap;rounded=0;" parent="1" vertex="1">
          <mxGeometry x="75" y="370" width="60" height="30" as="geometry" />
        </mxCell>
        <mxCell id="xODlBGkNjqvj4CVomSPa-66" value="" style="ellipse;whiteSpace=wrap;html=1;aspect=fixed;fillColor=none;" parent="1" vertex="1">
          <mxGeometry x="205" y="530" width="10" height="10" as="geometry" />
        </mxCell>
        <mxCell id="xODlBGkNjqvj4CVomSPa-67" value="" style="endArrow=none;html=1;rounded=0;exitX=0.5;exitY=0;exitDx=0;exitDy=0;" parent="1" source="xODlBGkNjqvj4CVomSPa-66" edge="1">
          <mxGeometry width="50" height="50" relative="1" as="geometry">
            <mxPoint x="190" y="570" as="sourcePoint" />
            <mxPoint x="210" y="520" as="targetPoint" />
          </mxGeometry>
        </mxCell>
        <mxCell id="xODlBGkNjqvj4CVomSPa-68" value="nome" style="text;html=1;align=center;verticalAlign=middle;whiteSpace=wrap;rounded=0;" parent="1" vertex="1">
          <mxGeometry x="180" y="535" width="60" height="30" as="geometry" />
        </mxCell>
        <mxCell id="xODlBGkNjqvj4CVomSPa-69" value="Fa parte" style="rhombus;whiteSpace=wrap;html=1;" parent="1" vertex="1">
          <mxGeometry x="335" y="430" width="155" height="80" as="geometry" />
        </mxCell>
        <mxCell id="xODlBGkNjqvj4CVomSPa-70" value="" style="endArrow=none;html=1;rounded=0;exitX=1;exitY=0.5;exitDx=0;exitDy=0;entryX=0;entryY=0.5;entryDx=0;entryDy=0;" parent="1" source="xODlBGkNjqvj4CVomSPa-53" target="xODlBGkNjqvj4CVomSPa-69" edge="1">
          <mxGeometry width="50" height="50" relative="1" as="geometry">
            <mxPoint x="260" y="490" as="sourcePoint" />
            <mxPoint x="310" y="440" as="targetPoint" />
          </mxGeometry>
        </mxCell>
        <mxCell id="xODlBGkNjqvj4CVomSPa-71" value="" style="endArrow=none;html=1;rounded=0;exitX=0.5;exitY=0;exitDx=0;exitDy=0;" parent="1" source="xODlBGkNjqvj4CVomSPa-69" edge="1">
          <mxGeometry width="50" height="50" relative="1" as="geometry">
            <mxPoint x="450" y="380" as="sourcePoint" />
            <mxPoint x="413" y="370" as="targetPoint" />
          </mxGeometry>
        </mxCell>
        <mxCell id="xODlBGkNjqvj4CVomSPa-72" value="Dipartimento" style="rounded=0;whiteSpace=wrap;html=1;" parent="1" vertex="1">
          <mxGeometry x="337" y="280" width="163" height="90" as="geometry" />
        </mxCell>
        <mxCell id="xODlBGkNjqvj4CVomSPa-73" value="" style="ellipse;whiteSpace=wrap;html=1;aspect=fixed;fillColor=light-dark(#FFFFFF,#FFFFFF);" parent="1" vertex="1">
          <mxGeometry x="350" y="240" width="10" height="10" as="geometry" />
        </mxCell>
        <mxCell id="xODlBGkNjqvj4CVomSPa-74" value="nome" style="text;html=1;align=center;verticalAlign=middle;whiteSpace=wrap;rounded=0;" parent="1" vertex="1">
          <mxGeometry x="359.5" y="230" width="60" height="30" as="geometry" />
        </mxCell>
        <mxCell id="xODlBGkNjqvj4CVomSPa-75" value="" style="endArrow=none;html=1;rounded=0;entryX=0.5;entryY=1;entryDx=0;entryDy=0;exitX=0.25;exitY=0;exitDx=0;exitDy=0;" parent="1" source="xODlBGkNjqvj4CVomSPa-72" target="xODlBGkNjqvj4CVomSPa-73" edge="1">
          <mxGeometry width="50" height="50" relative="1" as="geometry">
            <mxPoint x="320" y="300" as="sourcePoint" />
            <mxPoint x="370" y="250" as="targetPoint" />
          </mxGeometry>
        </mxCell>
        <mxCell id="xODlBGkNjqvj4CVomSPa-81" value="" style="endArrow=none;html=1;rounded=0;" parent="1" edge="1">
          <mxGeometry width="50" height="50" relative="1" as="geometry">
            <mxPoint x="10" y="100" as="sourcePoint" />
            <mxPoint x="60" y="100" as="targetPoint" />
          </mxGeometry>
        </mxCell>
        <mxCell id="xODlBGkNjqvj4CVomSPa-82" value="" style="endArrow=none;html=1;rounded=0;" parent="1" edge="1">
          <mxGeometry width="50" height="50" relative="1" as="geometry">
            <mxPoint x="10" y="690" as="sourcePoint" />
            <mxPoint x="10" y="100" as="targetPoint" />
          </mxGeometry>
        </mxCell>
        <mxCell id="xODlBGkNjqvj4CVomSPa-83" value="" style="endArrow=none;html=1;rounded=0;" parent="1" edge="1">
          <mxGeometry width="50" height="50" relative="1" as="geometry">
            <mxPoint x="10" y="690.1800000000001" as="sourcePoint" />
            <mxPoint x="115" y="689.8000000000001" as="targetPoint" />
          </mxGeometry>
        </mxCell>
        <mxCell id="xODlBGkNjqvj4CVomSPa-84" value="Impeigata in" style="rhombus;whiteSpace=wrap;html=1;" parent="1" vertex="1">
          <mxGeometry x="115" y="650" width="175" height="80" as="geometry" />
        </mxCell>
        <mxCell id="xODlBGkNjqvj4CVomSPa-85" value="Macchinario" style="rounded=0;whiteSpace=wrap;html=1;" parent="1" vertex="1">
          <mxGeometry x="345" y="660" width="120" height="60" as="geometry" />
        </mxCell>
        <mxCell id="xODlBGkNjqvj4CVomSPa-87" value="" style="endArrow=none;html=1;rounded=0;exitX=1;exitY=0.5;exitDx=0;exitDy=0;entryX=0;entryY=0.5;entryDx=0;entryDy=0;" parent="1" source="xODlBGkNjqvj4CVomSPa-84" target="xODlBGkNjqvj4CVomSPa-85" edge="1">
          <mxGeometry width="50" height="50" relative="1" as="geometry">
            <mxPoint x="290" y="700" as="sourcePoint" />
            <mxPoint x="340" y="650" as="targetPoint" />
          </mxGeometry>
        </mxCell>
        <mxCell id="xODlBGkNjqvj4CVomSPa-88" value="" style="endArrow=none;html=1;rounded=0;entryX=0.5;entryY=1;entryDx=0;entryDy=0;" parent="1" target="xODlBGkNjqvj4CVomSPa-84" edge="1">
          <mxGeometry width="50" height="50" relative="1" as="geometry">
            <mxPoint x="210" y="760" as="sourcePoint" />
            <mxPoint x="205" y="730" as="targetPoint" />
          </mxGeometry>
        </mxCell>
        <mxCell id="xODlBGkNjqvj4CVomSPa-91" value="" style="ellipse;whiteSpace=wrap;html=1;aspect=fixed;fillColor=light-dark(#FFFFFF,transparent);" parent="1" vertex="1">
          <mxGeometry x="205" y="760" width="10" height="10" as="geometry" />
        </mxCell>
        <mxCell id="xODlBGkNjqvj4CVomSPa-92" value="ore_lavoro" style="text;html=1;align=center;verticalAlign=middle;whiteSpace=wrap;rounded=0;" parent="1" vertex="1">
          <mxGeometry x="220" y="750" width="60" height="30" as="geometry" />
        </mxCell>
        <mxCell id="xODlBGkNjqvj4CVomSPa-100" value="" style="ellipse;whiteSpace=wrap;html=1;aspect=fixed;fillColor=light-dark(#FFFFFF,#FFFFFF);" parent="1" vertex="1">
          <mxGeometry x="362" y="745" width="15" height="15" as="geometry" />
        </mxCell>
        <mxCell id="xODlBGkNjqvj4CVomSPa-101" value="Seriale" style="text;html=1;align=center;verticalAlign=middle;whiteSpace=wrap;rounded=0;" parent="1" vertex="1">
          <mxGeometry x="335" y="760" width="60" height="30" as="geometry" />
        </mxCell>
        <mxCell id="xODlBGkNjqvj4CVomSPa-102" value="" style="endArrow=none;html=1;rounded=0;entryX=0.25;entryY=1;entryDx=0;entryDy=0;exitX=0.5;exitY=0;exitDx=0;exitDy=0;" parent="1" source="xODlBGkNjqvj4CVomSPa-100" target="xODlBGkNjqvj4CVomSPa-85" edge="1">
          <mxGeometry width="50" height="50" relative="1" as="geometry">
            <mxPoint x="330" y="770" as="sourcePoint" />
            <mxPoint x="380" y="720" as="targetPoint" />
          </mxGeometry>
        </mxCell>
        <mxCell id="xODlBGkNjqvj4CVomSPa-103" value="" style="ellipse;whiteSpace=wrap;html=1;aspect=fixed;fillColor=light-dark(#FFFFFF,transparent);" parent="1" vertex="1">
          <mxGeometry x="435" y="745" width="10" height="10" as="geometry" />
        </mxCell>
        <mxCell id="xODlBGkNjqvj4CVomSPa-104" value="nome" style="text;html=1;align=center;verticalAlign=middle;whiteSpace=wrap;rounded=0;" parent="1" vertex="1">
          <mxGeometry x="420" y="755" width="60" height="30" as="geometry" />
        </mxCell>
        <mxCell id="xODlBGkNjqvj4CVomSPa-105" value="" style="endArrow=none;html=1;rounded=0;entryX=0.5;entryY=1;entryDx=0;entryDy=0;exitX=0;exitY=0;exitDx=0;exitDy=0;" parent="1" source="xODlBGkNjqvj4CVomSPa-103" target="xODlBGkNjqvj4CVomSPa-85" edge="1">
          <mxGeometry width="50" height="50" relative="1" as="geometry">
            <mxPoint x="420" y="750" as="sourcePoint" />
            <mxPoint x="430" y="720" as="targetPoint" />
          </mxGeometry>
        </mxCell>
        <mxCell id="xODlBGkNjqvj4CVomSPa-107" value="" style="ellipse;whiteSpace=wrap;html=1;aspect=fixed;fillColor=light-dark(#FFFFFF,transparent);" parent="1" vertex="1">
          <mxGeometry x="362" y="620" width="10" height="10" as="geometry" />
        </mxCell>
        <mxCell id="xODlBGkNjqvj4CVomSPa-108" value="" style="endArrow=none;html=1;rounded=0;entryX=0.5;entryY=1;entryDx=0;entryDy=0;exitX=0.25;exitY=0;exitDx=0;exitDy=0;" parent="1" source="xODlBGkNjqvj4CVomSPa-85" target="xODlBGkNjqvj4CVomSPa-107" edge="1">
          <mxGeometry width="50" height="50" relative="1" as="geometry">
            <mxPoint x="340" y="670" as="sourcePoint" />
            <mxPoint x="390" y="620" as="targetPoint" />
          </mxGeometry>
        </mxCell>
        <mxCell id="xODlBGkNjqvj4CVomSPa-109" value="tipo" style="text;strokeColor=none;align=center;fillColor=none;html=1;verticalAlign=middle;whiteSpace=wrap;rounded=0;" parent="1" vertex="1">
          <mxGeometry x="335" y="590" width="60" height="30" as="geometry" />
        </mxCell>
        <mxCell id="xODlBGkNjqvj4CVomSPa-112" value="" style="ellipse;whiteSpace=wrap;html=1;aspect=fixed;fillColor=light-dark(#FFFFFF,transparent);" parent="1" vertex="1">
          <mxGeometry x="409.5" y="620" width="10" height="10" as="geometry" />
        </mxCell>
        <mxCell id="xODlBGkNjqvj4CVomSPa-113" value="" style="endArrow=none;html=1;rounded=0;entryX=0.5;entryY=1;entryDx=0;entryDy=0;exitX=0.25;exitY=0;exitDx=0;exitDy=0;" parent="1" target="xODlBGkNjqvj4CVomSPa-112" edge="1">
          <mxGeometry width="50" height="50" relative="1" as="geometry">
            <mxPoint x="422.5" y="660" as="sourcePoint" />
            <mxPoint x="437.5" y="620" as="targetPoint" />
          </mxGeometry>
        </mxCell>
        <mxCell id="xODlBGkNjqvj4CVomSPa-114" value="anno_prodizione" style="text;strokeColor=none;align=center;fillColor=none;html=1;verticalAlign=middle;whiteSpace=wrap;rounded=0;" parent="1" vertex="1">
          <mxGeometry x="405" y="590" width="60" height="30" as="geometry" />
        </mxCell>
        <mxCell id="xODlBGkNjqvj4CVomSPa-115" value="Controlla il funzionamento" style="rhombus;whiteSpace=wrap;html=1;" parent="1" vertex="1">
          <mxGeometry x="535" y="650" width="180" height="80" as="geometry" />
        </mxCell>
        <mxCell id="xODlBGkNjqvj4CVomSPa-116" value="" style="endArrow=none;html=1;rounded=0;entryX=0;entryY=0.5;entryDx=0;entryDy=0;exitX=1;exitY=0.5;exitDx=0;exitDy=0;" parent="1" source="xODlBGkNjqvj4CVomSPa-85" target="xODlBGkNjqvj4CVomSPa-115" edge="1">
          <mxGeometry width="50" height="50" relative="1" as="geometry">
            <mxPoint x="450" y="710" as="sourcePoint" />
            <mxPoint x="500" y="660" as="targetPoint" />
          </mxGeometry>
        </mxCell>
        <mxCell id="xODlBGkNjqvj4CVomSPa-117" value="Sensore" style="rounded=0;whiteSpace=wrap;html=1;" parent="1" vertex="1">
          <mxGeometry x="753" y="650" width="140" height="80" as="geometry" />
        </mxCell>
        <mxCell id="xODlBGkNjqvj4CVomSPa-118" value="" style="endArrow=none;html=1;rounded=0;exitX=1;exitY=0.5;exitDx=0;exitDy=0;entryX=0;entryY=0.5;entryDx=0;entryDy=0;" parent="1" source="xODlBGkNjqvj4CVomSPa-115" target="xODlBGkNjqvj4CVomSPa-117" edge="1">
          <mxGeometry width="50" height="50" relative="1" as="geometry">
            <mxPoint x="750" y="720" as="sourcePoint" />
            <mxPoint x="800" y="670" as="targetPoint" />
          </mxGeometry>
        </mxCell>
        <mxCell id="xODlBGkNjqvj4CVomSPa-119" value="" style="ellipse;whiteSpace=wrap;html=1;aspect=fixed;fillColor=light-dark(#FFFFFF,#FFFFFF);" parent="1" vertex="1">
          <mxGeometry x="763" y="770" width="15" height="15" as="geometry" />
        </mxCell>
        <mxCell id="xODlBGkNjqvj4CVomSPa-120" value="id_sensore" style="text;html=1;align=center;verticalAlign=middle;whiteSpace=wrap;rounded=0;" parent="1" vertex="1">
          <mxGeometry x="740" y="785" width="60" height="30" as="geometry" />
        </mxCell>
        <mxCell id="xODlBGkNjqvj4CVomSPa-121" value="" style="endArrow=none;html=1;rounded=0;entryX=0.25;entryY=1;entryDx=0;entryDy=0;exitX=0.5;exitY=0;exitDx=0;exitDy=0;" parent="1" source="xODlBGkNjqvj4CVomSPa-119" target="xODlBGkNjqvj4CVomSPa-117" edge="1">
          <mxGeometry width="50" height="50" relative="1" as="geometry">
            <mxPoint x="773" y="780" as="sourcePoint" />
            <mxPoint x="823" y="730" as="targetPoint" />
          </mxGeometry>
        </mxCell>
        <mxCell id="xODlBGkNjqvj4CVomSPa-125" value="" style="ellipse;whiteSpace=wrap;html=1;aspect=fixed;fillColor=light-dark(#FFFFFF,transparent);" parent="1" vertex="1">
          <mxGeometry x="1023" y="880" width="15" height="15" as="geometry" />
        </mxCell>
        <mxCell id="xODlBGkNjqvj4CVomSPa-127" value="tipo" style="text;html=1;align=center;verticalAlign=middle;whiteSpace=wrap;rounded=0;" parent="1" vertex="1">
          <mxGeometry x="993" y="895" width="60" height="30" as="geometry" />
        </mxCell>
        <mxCell id="xODlBGkNjqvj4CVomSPa-129" value="" style="ellipse;whiteSpace=wrap;html=1;aspect=fixed;fillColor=light-dark(#FFFFFF,transparent);" parent="1" vertex="1">
          <mxGeometry x="1098" y="880" width="15" height="15" as="geometry" />
        </mxCell>
        <mxCell id="xODlBGkNjqvj4CVomSPa-130" value="metodo&lt;div&gt;acquisizione&lt;/div&gt;" style="text;html=1;align=center;verticalAlign=middle;whiteSpace=wrap;rounded=0;" parent="1" vertex="1">
          <mxGeometry x="1075.5" y="895" width="60" height="30" as="geometry" />
        </mxCell>
        <mxCell id="xODlBGkNjqvj4CVomSPa-132" value="" style="ellipse;whiteSpace=wrap;html=1;aspect=fixed;fillColor=light-dark(#FFFFFF,transparent);" parent="1" vertex="1">
          <mxGeometry x="1170" y="880" width="15" height="15" as="geometry" />
        </mxCell>
        <mxCell id="xODlBGkNjqvj4CVomSPa-133" value="descrizione" style="text;html=1;align=center;verticalAlign=middle;whiteSpace=wrap;rounded=0;" parent="1" vertex="1">
          <mxGeometry x="1170" y="895" width="60" height="30" as="geometry" />
        </mxCell>
        <mxCell id="xODlBGkNjqvj4CVomSPa-134" value="" style="ellipse;whiteSpace=wrap;html=1;aspect=fixed;fillColor=none;" parent="1" vertex="1">
          <mxGeometry x="953" y="682.5" width="15" height="15" as="geometry" />
        </mxCell>
        <mxCell id="xODlBGkNjqvj4CVomSPa-135" value="id_macchinario" style="text;html=1;align=center;verticalAlign=middle;whiteSpace=wrap;rounded=0;" parent="1" vertex="1">
          <mxGeometry x="983" y="675" width="69.5" height="30" as="geometry" />
        </mxCell>
        <mxCell id="xODlBGkNjqvj4CVomSPa-136" value="" style="endArrow=none;html=1;rounded=0;entryX=1;entryY=0.5;entryDx=0;entryDy=0;exitX=0;exitY=0.5;exitDx=0;exitDy=0;" parent="1" source="xODlBGkNjqvj4CVomSPa-134" target="xODlBGkNjqvj4CVomSPa-117" edge="1">
          <mxGeometry width="50" height="50" relative="1" as="geometry">
            <mxPoint x="1026" y="740" as="sourcePoint" />
            <mxPoint x="1051" y="690" as="targetPoint" />
          </mxGeometry>
        </mxCell>
        <mxCell id="xODlBGkNjqvj4CVomSPa-137" value="Registra" style="rhombus;whiteSpace=wrap;html=1;" parent="1" vertex="1">
          <mxGeometry x="737" y="470" width="172" height="90" as="geometry" />
        </mxCell>
        <mxCell id="xODlBGkNjqvj4CVomSPa-138" value="" style="endArrow=none;html=1;rounded=0;entryX=0.5;entryY=1;entryDx=0;entryDy=0;exitX=0.5;exitY=0;exitDx=0;exitDy=0;" parent="1" source="xODlBGkNjqvj4CVomSPa-117" target="xODlBGkNjqvj4CVomSPa-137" edge="1">
          <mxGeometry width="50" height="50" relative="1" as="geometry">
            <mxPoint x="730" y="590" as="sourcePoint" />
            <mxPoint x="780" y="540" as="targetPoint" />
          </mxGeometry>
        </mxCell>
        <mxCell id="xODlBGkNjqvj4CVomSPa-139" value="Dato" style="rounded=0;whiteSpace=wrap;html=1;" parent="1" vertex="1">
          <mxGeometry x="729" y="250" width="188" height="110" as="geometry" />
        </mxCell>
        <mxCell id="xODlBGkNjqvj4CVomSPa-140" value="" style="endArrow=none;html=1;rounded=0;entryX=0.5;entryY=1;entryDx=0;entryDy=0;exitX=0.5;exitY=0;exitDx=0;exitDy=0;" parent="1" source="xODlBGkNjqvj4CVomSPa-137" target="xODlBGkNjqvj4CVomSPa-139" edge="1">
          <mxGeometry width="50" height="50" relative="1" as="geometry">
            <mxPoint x="780" y="410" as="sourcePoint" />
            <mxPoint x="830" y="360" as="targetPoint" />
          </mxGeometry>
        </mxCell>
        <mxCell id="xODlBGkNjqvj4CVomSPa-143" value="" style="ellipse;whiteSpace=wrap;html=1;aspect=fixed;fillColor=light-dark(#FFFFFF,transparent);" parent="1" vertex="1">
          <mxGeometry x="759.5" y="220" width="10" height="10" as="geometry" />
        </mxCell>
        <mxCell id="xODlBGkNjqvj4CVomSPa-144" value="" style="endArrow=none;html=1;rounded=0;entryX=0.5;entryY=1;entryDx=0;entryDy=0;exitX=0.5;exitY=0;exitDx=0;exitDy=0;" parent="1" target="xODlBGkNjqvj4CVomSPa-143" edge="1">
          <mxGeometry width="50" height="50" relative="1" as="geometry">
            <mxPoint x="764.5" y="250" as="sourcePoint" />
            <mxPoint x="814.5" y="220" as="targetPoint" />
          </mxGeometry>
        </mxCell>
        <mxCell id="xODlBGkNjqvj4CVomSPa-145" value="valore" style="text;html=1;align=center;verticalAlign=middle;whiteSpace=wrap;rounded=0;" parent="1" vertex="1">
          <mxGeometry x="737" y="190" width="60" height="30" as="geometry" />
        </mxCell>
        <mxCell id="xODlBGkNjqvj4CVomSPa-146" value="" style="ellipse;whiteSpace=wrap;html=1;aspect=fixed;fillColor=light-dark(#FFFFFF,transparent);" parent="1" vertex="1">
          <mxGeometry x="818" y="220" width="10" height="10" as="geometry" />
        </mxCell>
        <mxCell id="xODlBGkNjqvj4CVomSPa-147" value="" style="endArrow=none;html=1;rounded=0;entryX=0.5;entryY=1;entryDx=0;entryDy=0;exitX=0.5;exitY=0;exitDx=0;exitDy=0;" parent="1" target="xODlBGkNjqvj4CVomSPa-146" edge="1">
          <mxGeometry width="50" height="50" relative="1" as="geometry">
            <mxPoint x="823" y="250" as="sourcePoint" />
            <mxPoint x="873" y="220" as="targetPoint" />
          </mxGeometry>
        </mxCell>
        <mxCell id="xODlBGkNjqvj4CVomSPa-148" value="unita&lt;div&gt;di misura&lt;/div&gt;" style="text;html=1;align=center;verticalAlign=middle;whiteSpace=wrap;rounded=0;" parent="1" vertex="1">
          <mxGeometry x="793" y="190" width="60" height="30" as="geometry" />
        </mxCell>
        <mxCell id="xODlBGkNjqvj4CVomSPa-149" value="" style="ellipse;whiteSpace=wrap;html=1;aspect=fixed;fillColor=light-dark(#FFFFFF,transparent);" parent="1" vertex="1">
          <mxGeometry x="867" y="220" width="10" height="10" as="geometry" />
        </mxCell>
        <mxCell id="xODlBGkNjqvj4CVomSPa-150" value="" style="endArrow=none;html=1;rounded=0;entryX=0.5;entryY=1;entryDx=0;entryDy=0;exitX=0.5;exitY=0;exitDx=0;exitDy=0;" parent="1" target="xODlBGkNjqvj4CVomSPa-149" edge="1">
          <mxGeometry width="50" height="50" relative="1" as="geometry">
            <mxPoint x="872" y="250" as="sourcePoint" />
            <mxPoint x="922" y="220" as="targetPoint" />
          </mxGeometry>
        </mxCell>
        <mxCell id="xODlBGkNjqvj4CVomSPa-151" value="data" style="text;html=1;align=center;verticalAlign=middle;whiteSpace=wrap;rounded=0;" parent="1" vertex="1">
          <mxGeometry x="847" y="190" width="60" height="30" as="geometry" />
        </mxCell>
        <mxCell id="xODlBGkNjqvj4CVomSPa-160" value="" style="ellipse;whiteSpace=wrap;html=1;aspect=fixed;fillColor=light-dark(#FFFFFF,transparent);" parent="1" vertex="1">
          <mxGeometry x="205" y="257.5" width="10" height="10" as="geometry" />
        </mxCell>
        <mxCell id="xODlBGkNjqvj4CVomSPa-161" value="data_inizio" style="text;html=1;align=center;verticalAlign=middle;whiteSpace=wrap;rounded=0;" parent="1" vertex="1">
          <mxGeometry x="180" y="230" width="60" height="30" as="geometry" />
        </mxCell>
        <mxCell id="xODlBGkNjqvj4CVomSPa-162" value="" style="endArrow=none;html=1;rounded=0;entryX=0;entryY=1;entryDx=0;entryDy=0;exitX=0.676;exitY=0.186;exitDx=0;exitDy=0;exitPerimeter=0;" parent="1" source="xODlBGkNjqvj4CVomSPa-49" target="xODlBGkNjqvj4CVomSPa-160" edge="1">
          <mxGeometry width="50" height="50" relative="1" as="geometry">
            <mxPoint x="229" y="280" as="sourcePoint" />
            <mxPoint x="240" y="280" as="targetPoint" />
          </mxGeometry>
        </mxCell>
        <mxCell id="xODlBGkNjqvj4CVomSPa-163" value="" style="ellipse;whiteSpace=wrap;html=1;aspect=fixed;fillColor=light-dark(#FFFFFF,transparent);" parent="1" vertex="1">
          <mxGeometry x="240" y="270" width="10" height="10" as="geometry" />
        </mxCell>
        <mxCell id="xODlBGkNjqvj4CVomSPa-164" value="data_fine" style="text;html=1;align=center;verticalAlign=middle;whiteSpace=wrap;rounded=0;" parent="1" vertex="1">
          <mxGeometry x="250" y="260" width="60" height="30" as="geometry" />
        </mxCell>
        <mxCell id="xODlBGkNjqvj4CVomSPa-165" value="" style="endArrow=none;html=1;rounded=0;entryX=0;entryY=1;entryDx=0;entryDy=0;exitX=0.839;exitY=0.335;exitDx=0;exitDy=0;exitPerimeter=0;" parent="1" source="xODlBGkNjqvj4CVomSPa-49" target="xODlBGkNjqvj4CVomSPa-163" edge="1">
          <mxGeometry width="50" height="50" relative="1" as="geometry">
            <mxPoint x="289" y="310" as="sourcePoint" />
            <mxPoint x="300" y="310" as="targetPoint" />
          </mxGeometry>
        </mxCell>
        <mxCell id="xODlBGkNjqvj4CVomSPa-166" value="" style="ellipse;whiteSpace=wrap;html=1;aspect=fixed;fillColor=light-dark(#FFFFFF,#FFFFFF);" parent="1" vertex="1">
          <mxGeometry x="685" y="267.5" width="10" height="10" as="geometry" />
        </mxCell>
        <mxCell id="xODlBGkNjqvj4CVomSPa-167" value="id_dato" style="text;html=1;align=center;verticalAlign=middle;whiteSpace=wrap;rounded=0;" parent="1" vertex="1">
          <mxGeometry x="625" y="257.5" width="60" height="30" as="geometry" />
        </mxCell>
        <mxCell id="xODlBGkNjqvj4CVomSPa-170" value="" style="endArrow=none;html=1;rounded=0;entryX=1;entryY=0.5;entryDx=0;entryDy=0;exitX=0;exitY=0.25;exitDx=0;exitDy=0;" parent="1" source="xODlBGkNjqvj4CVomSPa-139" target="xODlBGkNjqvj4CVomSPa-166" edge="1">
          <mxGeometry width="50" height="50" relative="1" as="geometry">
            <mxPoint x="660" y="340" as="sourcePoint" />
            <mxPoint x="710" y="290" as="targetPoint" />
          </mxGeometry>
        </mxCell>
        <mxCell id="xODlBGkNjqvj4CVomSPa-171" value="" style="ellipse;whiteSpace=wrap;html=1;aspect=fixed;fillColor=light-dark(#FFFFFF,transparent);" parent="1" vertex="1">
          <mxGeometry x="685" y="310" width="10" height="10" as="geometry" />
        </mxCell>
        <mxCell id="xODlBGkNjqvj4CVomSPa-172" value="id_sensore" style="text;html=1;align=center;verticalAlign=middle;whiteSpace=wrap;rounded=0;" parent="1" vertex="1">
          <mxGeometry x="620" y="300" width="60" height="30" as="geometry" />
        </mxCell>
        <mxCell id="xODlBGkNjqvj4CVomSPa-173" value="" style="endArrow=none;html=1;rounded=0;entryX=1;entryY=0.5;entryDx=0;entryDy=0;exitX=0;exitY=0.5;exitDx=0;exitDy=0;" parent="1" source="xODlBGkNjqvj4CVomSPa-139" target="xODlBGkNjqvj4CVomSPa-171" edge="1">
          <mxGeometry width="50" height="50" relative="1" as="geometry">
            <mxPoint x="679" y="370" as="sourcePoint" />
            <mxPoint x="690" y="370" as="targetPoint" />
          </mxGeometry>
        </mxCell>
        <mxCell id="xODlBGkNjqvj4CVomSPa-175" value="" style="endArrow=none;html=1;rounded=0;exitX=1;exitY=0.178;exitDx=0;exitDy=0;exitPerimeter=0;entryX=0;entryY=0.5;entryDx=0;entryDy=0;" parent="1" source="xODlBGkNjqvj4CVomSPa-139" target="xODlBGkNjqvj4CVomSPa-176" edge="1">
          <mxGeometry width="50" height="50" relative="1" as="geometry">
            <mxPoint x="920" y="270" as="sourcePoint" />
            <mxPoint x="951.89" y="270" as="targetPoint" />
          </mxGeometry>
        </mxCell>
        <mxCell id="xODlBGkNjqvj4CVomSPa-176" value="" style="ellipse;whiteSpace=wrap;html=1;aspect=fixed;fillColor=light-dark(#FFFFFF,transparent);" parent="1" vertex="1">
          <mxGeometry x="953" y="267.5" width="10" height="10" as="geometry" />
        </mxCell>
        <mxCell id="xODlBGkNjqvj4CVomSPa-177" value="motivazione" style="text;strokeColor=none;align=center;fillColor=none;html=1;verticalAlign=middle;whiteSpace=wrap;rounded=0;" parent="1" vertex="1">
          <mxGeometry x="933" y="237.5" width="60" height="30" as="geometry" />
        </mxCell>
        <mxCell id="0AhAJkVNfdJjKYdBAQLr-8" value="(1,N)" style="text;strokeColor=none;align=center;fillColor=none;html=1;verticalAlign=middle;whiteSpace=wrap;rounded=0;" parent="1" vertex="1">
          <mxGeometry x="75" y="700" width="60" height="30" as="geometry" />
        </mxCell>
        <mxCell id="0AhAJkVNfdJjKYdBAQLr-9" value="(1,N)" style="text;strokeColor=none;align=center;fillColor=none;html=1;verticalAlign=middle;whiteSpace=wrap;rounded=0;" parent="1" vertex="1">
          <mxGeometry x="250" y="705" width="60" height="30" as="geometry" />
        </mxCell>
        <mxCell id="0AhAJkVNfdJjKYdBAQLr-10" value="(1,N)" style="text;strokeColor=none;align=center;fillColor=none;html=1;verticalAlign=middle;whiteSpace=wrap;rounded=0;" parent="1" vertex="1">
          <mxGeometry x="685" y="685" width="60" height="40" as="geometry" />
        </mxCell>
        <mxCell id="0AhAJkVNfdJjKYdBAQLr-11" value="(1,1)" style="text;strokeColor=none;align=center;fillColor=none;html=1;verticalAlign=middle;whiteSpace=wrap;rounded=0;" parent="1" vertex="1">
          <mxGeometry x="495" y="690" width="60" height="30" as="geometry" />
        </mxCell>
        <mxCell id="0AhAJkVNfdJjKYdBAQLr-12" value="(0,1)" style="text;strokeColor=none;align=center;fillColor=none;html=1;verticalAlign=middle;whiteSpace=wrap;rounded=0;" parent="1" vertex="1">
          <mxGeometry x="285" y="440" width="60" height="30" as="geometry" />
        </mxCell>
        <mxCell id="0AhAJkVNfdJjKYdBAQLr-13" value="(1,1)" style="text;strokeColor=none;align=center;fillColor=none;html=1;verticalAlign=middle;whiteSpace=wrap;rounded=0;" parent="1" vertex="1">
          <mxGeometry x="405" y="400" width="60" height="30" as="geometry" />
        </mxCell>
        <mxCell id="0AhAJkVNfdJjKYdBAQLr-14" value="(1,N)" style="text;strokeColor=none;align=center;fillColor=none;html=1;verticalAlign=middle;whiteSpace=wrap;rounded=0;" parent="1" vertex="1">
          <mxGeometry x="818" y="560" width="60" height="30" as="geometry" />
        </mxCell>
        <mxCell id="0AhAJkVNfdJjKYdBAQLr-15" value="(1,1)" style="text;strokeColor=none;align=center;fillColor=none;html=1;verticalAlign=middle;whiteSpace=wrap;rounded=0;" parent="1" vertex="1">
          <mxGeometry x="817" y="440" width="60" height="30" as="geometry" />
        </mxCell>
        <mxCell id="0AhAJkVNfdJjKYdBAQLr-16" value="(0,N)" style="text;strokeColor=none;align=center;fillColor=none;html=1;verticalAlign=middle;whiteSpace=wrap;rounded=0;" parent="1" vertex="1">
          <mxGeometry x="115" y="237.5" width="60" height="30" as="geometry" />
        </mxCell>
        <mxCell id="0AhAJkVNfdJjKYdBAQLr-17" value="(0,4)" style="text;strokeColor=none;align=center;fillColor=none;html=1;verticalAlign=middle;whiteSpace=wrap;rounded=0;" parent="1" vertex="1">
          <mxGeometry x="115" y="350" width="60" height="30" as="geometry" />
        </mxCell>
        <mxCell id="_JspUdwKTRQ0M5dXFDfT-9" value="" style="endArrow=none;html=1;rounded=0;exitX=1;exitY=0.178;exitDx=0;exitDy=0;exitPerimeter=0;entryX=0;entryY=0.5;entryDx=0;entryDy=0;" parent="1" target="_JspUdwKTRQ0M5dXFDfT-10" edge="1">
          <mxGeometry width="50" height="50" relative="1" as="geometry">
            <mxPoint x="917" y="322.5" as="sourcePoint" />
            <mxPoint x="951.89" y="322.5" as="targetPoint" />
          </mxGeometry>
        </mxCell>
        <mxCell id="_JspUdwKTRQ0M5dXFDfT-10" value="" style="ellipse;whiteSpace=wrap;html=1;aspect=fixed;fillColor=light-dark(#FFFFFF,transparent);" parent="1" vertex="1">
          <mxGeometry x="953" y="320" width="10" height="10" as="geometry" />
        </mxCell>
        <mxCell id="_JspUdwKTRQ0M5dXFDfT-11" value="tipo" style="text;strokeColor=none;align=center;fillColor=none;html=1;verticalAlign=middle;whiteSpace=wrap;rounded=0;" parent="1" vertex="1">
          <mxGeometry x="933" y="290" width="60" height="30" as="geometry" />
        </mxCell>
        <mxCell id="2crQd57JzAx7nFSJGWL--1" value="Specifiche" style="rounded=0;whiteSpace=wrap;html=1;" vertex="1" parent="1">
          <mxGeometry x="1040" y="790" width="120" height="60" as="geometry" />
        </mxCell>
        <mxCell id="2crQd57JzAx7nFSJGWL--2" value="" style="endArrow=none;html=1;rounded=0;fontSize=12;startSize=8;endSize=8;curved=1;entryX=0.25;entryY=1;entryDx=0;entryDy=0;exitX=1;exitY=0;exitDx=0;exitDy=0;" edge="1" parent="1" source="xODlBGkNjqvj4CVomSPa-125" target="2crQd57JzAx7nFSJGWL--1">
          <mxGeometry width="50" height="50" relative="1" as="geometry">
            <mxPoint x="1020" y="905" as="sourcePoint" />
            <mxPoint x="1070" y="855" as="targetPoint" />
          </mxGeometry>
        </mxCell>
        <mxCell id="2crQd57JzAx7nFSJGWL--3" value="" style="endArrow=none;html=1;rounded=0;fontSize=12;startSize=8;endSize=8;curved=1;entryX=0.5;entryY=1;entryDx=0;entryDy=0;exitX=0.5;exitY=0;exitDx=0;exitDy=0;" edge="1" parent="1" source="xODlBGkNjqvj4CVomSPa-129" target="2crQd57JzAx7nFSJGWL--1">
          <mxGeometry width="50" height="50" relative="1" as="geometry">
            <mxPoint x="1070" y="895" as="sourcePoint" />
            <mxPoint x="1120" y="845" as="targetPoint" />
          </mxGeometry>
        </mxCell>
        <mxCell id="2crQd57JzAx7nFSJGWL--4" value="" style="endArrow=none;html=1;rounded=0;fontSize=12;startSize=8;endSize=8;curved=1;entryX=0.75;entryY=1;entryDx=0;entryDy=0;exitX=0.5;exitY=0;exitDx=0;exitDy=0;" edge="1" parent="1" source="xODlBGkNjqvj4CVomSPa-132" target="2crQd57JzAx7nFSJGWL--1">
          <mxGeometry width="50" height="50" relative="1" as="geometry">
            <mxPoint x="1140" y="905" as="sourcePoint" />
            <mxPoint x="1190" y="855" as="targetPoint" />
          </mxGeometry>
        </mxCell>
        <mxCell id="2crQd57JzAx7nFSJGWL--5" value="" style="endArrow=none;html=1;rounded=0;fontSize=12;startSize=8;endSize=8;curved=1;entryX=0.5;entryY=1;entryDx=0;entryDy=0;exitX=0;exitY=0.5;exitDx=0;exitDy=0;" edge="1" parent="1" source="2crQd57JzAx7nFSJGWL--6" target="xODlBGkNjqvj4CVomSPa-117">
          <mxGeometry width="50" height="50" relative="1" as="geometry">
            <mxPoint x="860" y="790" as="sourcePoint" />
            <mxPoint x="890" y="740" as="targetPoint" />
          </mxGeometry>
        </mxCell>
        <mxCell id="2crQd57JzAx7nFSJGWL--6" value="è descitto" style="rhombus;whiteSpace=wrap;html=1;" vertex="1" parent="1">
          <mxGeometry x="877" y="770" width="80" height="80" as="geometry" />
        </mxCell>
        <mxCell id="2crQd57JzAx7nFSJGWL--7" value="" style="endArrow=none;html=1;rounded=0;fontSize=12;startSize=8;endSize=8;curved=1;exitX=1;exitY=0.5;exitDx=0;exitDy=0;entryX=0;entryY=0.5;entryDx=0;entryDy=0;" edge="1" parent="1" source="2crQd57JzAx7nFSJGWL--6" target="2crQd57JzAx7nFSJGWL--1">
          <mxGeometry width="50" height="50" relative="1" as="geometry">
            <mxPoint x="970" y="820" as="sourcePoint" />
            <mxPoint x="1020" y="770" as="targetPoint" />
          </mxGeometry>
        </mxCell>
        <mxCell id="2crQd57JzAx7nFSJGWL--8" value="(1,1)" style="text;strokeColor=none;align=center;fillColor=none;html=1;verticalAlign=middle;whiteSpace=wrap;rounded=0;" vertex="1" parent="1">
          <mxGeometry x="857" y="737.5" width="60" height="30" as="geometry" />
        </mxCell>
        <mxCell id="2crQd57JzAx7nFSJGWL--9" value="(1,1)" style="text;strokeColor=none;align=center;fillColor=none;html=1;verticalAlign=middle;whiteSpace=wrap;rounded=0;" vertex="1" parent="1">
          <mxGeometry x="978" y="785" width="60" height="30" as="geometry" />
        </mxCell>
        <mxCell id="2crQd57JzAx7nFSJGWL--10" value="" style="endArrow=none;html=1;rounded=0;fontSize=12;startSize=8;endSize=8;curved=1;entryX=-0.015;entryY=0.365;entryDx=0;entryDy=0;entryPerimeter=0;" edge="1" parent="1" target="2crQd57JzAx7nFSJGWL--8">
          <mxGeometry width="50" height="50" relative="1" as="geometry">
            <mxPoint x="760" y="750" as="sourcePoint" />
            <mxPoint x="850" y="740" as="targetPoint" />
          </mxGeometry>
        </mxCell>
        <mxCell id="2crQd57JzAx7nFSJGWL--11" value="" style="endArrow=none;html=1;rounded=0;fontSize=12;startSize=8;endSize=8;curved=1;" edge="1" parent="1">
          <mxGeometry width="50" height="50" relative="1" as="geometry">
            <mxPoint x="1090" y="790" as="sourcePoint" />
            <mxPoint x="1090" y="750" as="targetPoint" />
          </mxGeometry>
        </mxCell>
        <mxCell id="2crQd57JzAx7nFSJGWL--12" value="" style="ellipse;whiteSpace=wrap;html=1;aspect=fixed;fillColor=none;" vertex="1" parent="1">
          <mxGeometry x="1083" y="735" width="15" height="15" as="geometry" />
        </mxCell>
        <mxCell id="2crQd57JzAx7nFSJGWL--13" value="id_sensore" style="text;html=1;align=center;verticalAlign=middle;whiteSpace=wrap;rounded=0;" vertex="1" parent="1">
          <mxGeometry x="1115.5" y="727.5" width="69.5" height="30" as="geometry" />
        </mxCell>
      </root>
    </mxGraphModel>
  </diagram>
</mxfile>
